<svg id="Laag_1" data-name="Laag 1" xmlns="http://www.w3.org/2000/svg" viewBox="0 0 68.21 68.21"><defs><style>.cls-1{fill-rule:evenodd;}</style></defs><g id="noun_Pin_4389870" data-name="noun Pin 4389870"><path id="Path_132" data-name="Path 132" class="cls-1" d="M45.38,18.51a3.94,3.94,0,0,0-5.57,0h0l-8.42,8.42a.45.45,0,0,1-.2.12l-6.66,2.57a3.94,3.94,0,0,0-2.27,5.09,4,4,0,0,0,.89,1.37l4.32,4.32-9.15,9.15a1.69,1.69,0,1,0,2.38,2.39l9.16-9.15,4.31,4.31a3.94,3.94,0,0,0,5.57,0,3.86,3.86,0,0,0,.89-1.37l2.57-6.67a.53.53,0,0,1,.13-.2l8.41-8.42a3.94,3.94,0,0,0,0-5.57h0Zm-8.82,26.2a.57.57,0,0,0,.8,0,.5.5,0,0,0,.13-.19l2.56-6.67a4,4,0,0,1,.89-1.38l8.42-8.4a.57.57,0,0,0,0-.8h0L43,20.89a.56.56,0,0,0-.79,0l-8.42,8.42a4,4,0,0,1-1.38.89l-6.66,2.57a.56.56,0,0,0-.33.72.53.53,0,0,0,.13.2Z" transform="translate(-1.26 -0.79)"/></g><path id="Path_148" data-name="Path 148" d="M35.36.79A34.11,34.11,0,1,0,69.47,34.9h0A34.11,34.11,0,0,0,35.36.79ZM57.92,57.45a31.89,31.89,0,1,1,9.35-22.56A31.9,31.9,0,0,1,57.92,57.45Z" transform="translate(-1.26 -0.79)"/><path id="Path_149" data-name="Path 149" d="M35.36.79A34.11,34.11,0,1,0,69.47,34.9h0A34.11,34.11,0,0,0,35.36.79ZM57.92,57.45a31.89,31.89,0,1,1,9.35-22.56A31.9,31.9,0,0,1,57.92,57.45Z" transform="translate(-1.26 -0.79)"/></svg>