<svg id="Laag_1" data-name="Laag 1" xmlns="http://www.w3.org/2000/svg" viewBox="0 0 68.21 68.21"><g id="noun_Star_865662" data-name="noun Star 865662"><g id="Group_47" data-name="Group 47"><path id="Path_35" data-name="Path 35" d="M35.36,1A34.11,34.11,0,1,0,69.47,35.11h0A34.11,34.11,0,0,0,35.36,1ZM57.92,57.67A31.89,31.89,0,1,1,67.27,35.1,31.91,31.91,0,0,1,57.92,57.67Z" transform="translate(-1.26 -1)"/></g></g><g id="noun_Sign-out_4036041" data-name="noun Sign-out 4036041"><g id="Group_141" data-name="Group 141"><path id="Path_221" data-name="Path 221" d="M45.48,20H26.33a6,6,0,0,0-6,6h0V45.18a6,6,0,0,0,6,6H45.49a6,6,0,0,0,6-6h0V26a6,6,0,0,0-6-6Zm3.59,25.14a3.59,3.59,0,0,1-3.59,3.6H26.33a3.6,3.6,0,0,1-3.6-3.6h0V36.79H33l-2.75,2.74a1.2,1.2,0,0,0,1.7,1.7h0l4.79-4.79a1.24,1.24,0,0,0,0-1.7L32,30a1.2,1.2,0,0,0-1.7,0,1.22,1.22,0,0,0,0,1.7L33,34.4H22.73V26a3.6,3.6,0,0,1,3.6-3.6H45.49A3.6,3.6,0,0,1,49.08,26h0Z" transform="translate(-1.26 -1)"/></g></g></svg>