<svg id="Laag_1" data-name="Laag 1" xmlns="http://www.w3.org/2000/svg" viewBox="0 0 68.21 68.21"><g id="Group_47" data-name="Group 47"><path id="Path_35" data-name="Path 35" d="M35.38,1A34.11,34.11,0,1,0,69.49,35.11h0A34.11,34.11,0,0,0,35.38,1ZM57.94,57.67A31.89,31.89,0,1,1,67.29,35.1,31.91,31.91,0,0,1,57.94,57.67Z" transform="translate(-1.28 -1)"/><path id="Path_36" data-name="Path 36" d="M51.42,27.68l-8.61-1.25L39,18.63h0A3.92,3.92,0,0,0,37.43,17a4,4,0,0,0-4.09,0,3.8,3.8,0,0,0-1.53,1.67L28,26.43l-8.61,1.25a4,4,0,0,0-2.51,1.41,4.08,4.08,0,0,0-.91,2.55,4,4,0,0,0,1.21,2.85l6.24,6.07-1.48,8.57h0a4.14,4.14,0,0,0-.06.7,4,4,0,0,0,5.85,3.52l7.7-4.05,7.7,4a4,4,0,0,0,5.79-4.2L47.4,40.56l6.23-6.07a4,4,0,0,0,1.21-2.84,4,4,0,0,0-.91-2.56A3.94,3.94,0,0,0,51.42,27.68Zm.68,5.23-6.65,6.48a1.09,1.09,0,0,0-.31,1l1.57,9.15a1.66,1.66,0,0,1,0,.32,1.76,1.76,0,0,1-.54,1.26,1.77,1.77,0,0,1-2.09.31L35.9,47.07a1.08,1.08,0,0,0-1,0L26.66,51.4a1.76,1.76,0,0,1-2.08-.31,1.74,1.74,0,0,1-.51-1.58h0l1.57-9.14a1.11,1.11,0,0,0-.32-1l-6.64-6.48a1.71,1.71,0,0,1-.55-1.26,1.82,1.82,0,0,1,.42-1.16,1.72,1.72,0,0,1,1.12-.63l9.18-1.33a1.13,1.13,0,0,0,.83-.6l4.11-8.33a1.62,1.62,0,0,1,.68-.74,1.79,1.79,0,0,1,1.84,0,1.7,1.7,0,0,1,.69.74l4.1,8.33a1.13,1.13,0,0,0,.83.6l9.18,1.33a1.75,1.75,0,0,1,1.13.63,1.84,1.84,0,0,1,.41,1.16,1.74,1.74,0,0,1-.55,1.26Z" transform="translate(-1.28 -1)"/></g></svg>