<svg id="Laag_1" data-name="Laag 1" xmlns="http://www.w3.org/2000/svg" viewBox="0 0 89.45 89.53"><g id="noun_stars_4374920" data-name="noun stars 4374920"><g id="Group_6" data-name="Group 6"><path id="Path_1" data-name="Path 1" d="M60.43,68.44a3,3,0,0,0,1.21-3L59.52,53.07a2,2,0,0,1,.58-1.78l9-8.77a3,3,0,0,0,.78-3.13,3.07,3.07,0,0,0-2.48-2.1L55,35.48a2,2,0,0,1-1.5-1.1L47.9,23.11a3.06,3.06,0,0,0-5.49,0L36.85,34.37a2,2,0,0,1-1.52,1.1L22.9,37.28a3.08,3.08,0,0,0-1.69,5.23l9,8.77a2,2,0,0,1,.57,1.78L28.64,65.44a3.07,3.07,0,0,0,4.44,3.23l11.13-5.85a2,2,0,0,1,1.87,0L57.2,68.67a3.08,3.08,0,0,0,1.43.35A3,3,0,0,0,60.43,68.44Z" transform="translate(-0.38 -0.42)"/><path id="Path_2" data-name="Path 2" d="M1.45,28.19l10.06,4.25a1.45,1.45,0,0,0,.51.1,1.31,1.31,0,0,0,.5-2.52L2.46,25.78a1.31,1.31,0,0,0-1,2.39l0,0Z" transform="translate(-0.38 -0.42)"/><path id="Path_3" data-name="Path 3" d="M45.16,75.89a1.3,1.3,0,0,0-1.31,1.29V86.9a1.31,1.31,0,0,0,2.61,0V77.21A1.32,1.32,0,0,0,45.16,75.89Z" transform="translate(-0.38 -0.42)"/><path id="Path_4" data-name="Path 4" d="M68.7,66.91a1.32,1.32,0,0,0-1.86,0,1.3,1.3,0,0,0,0,1.84h0l6.87,6.87a1.3,1.3,0,0,0,.92.38,1.31,1.31,0,0,0,.92-2.24Z" transform="translate(-0.38 -0.42)"/><path id="Path_5" data-name="Path 5" d="M30.4,12.38a1.28,1.28,0,0,0,1.67.73h0a1.32,1.32,0,0,0,.73-1.71h0L28.7,1.28a1.31,1.31,0,0,0-2.45.91.14.14,0,0,0,0,.07Z" transform="translate(-0.38 -0.42)"/><path id="Path_6" data-name="Path 6" d="M45.16,14.53a1.3,1.3,0,0,0,1.3-1.31V3.51a1.31,1.31,0,0,0-2.61,0v9.7a1.3,1.3,0,0,0,1.27,1.32Z" transform="translate(-0.38 -0.42)"/><path id="Path_7" data-name="Path 7" d="M67.76,23.91a1.31,1.31,0,0,0,.93-.39l6.86-6.86a1.31,1.31,0,0,0-1.84-1.87v0l-6.87,6.86a1.3,1.3,0,0,0,0,1.84v0A1.36,1.36,0,0,0,67.76,23.91Z" transform="translate(-0.38 -0.42)"/><path id="Path_8" data-name="Path 8" d="M86.85,46.53a1.31,1.31,0,0,0,0-2.62H77.14a1.31,1.31,0,0,0-.08,2.62h9.79Z" transform="translate(-0.38 -0.42)"/><path id="Path_9" data-name="Path 9" d="M21.6,23.52a1.35,1.35,0,0,0,.92.39,1.31,1.31,0,0,0,1.31-1.32,1.34,1.34,0,0,0-.38-.92l-6.86-6.86a1.31,1.31,0,1,0-1.86,1.85Z" transform="translate(-0.38 -0.42)"/><path id="Path_10" data-name="Path 10" d="M13.16,43.9H3.46a1.31,1.31,0,0,0,0,2.62h9.7a1.31,1.31,0,0,0,0-2.62Z" transform="translate(-0.38 -0.42)"/><path id="Path_11" data-name="Path 11" d="M31.67,77.15a1.34,1.34,0,0,0-1.72.69L25.72,87.91a1.28,1.28,0,0,0,.66,1.7h0a1.12,1.12,0,0,0,.51.11,1.29,1.29,0,0,0,1.2-.81l4.24-10.06a1.28,1.28,0,0,0-.65-1.69Z" transform="translate(-0.38 -0.42)"/><path id="Path_12" data-name="Path 12" d="M59.91,78a1.31,1.31,0,0,0-2.43,1l4.11,10.11A1.3,1.3,0,0,0,62.8,90a1.37,1.37,0,0,0,.49-.09A1.32,1.32,0,0,0,64,88.16Z" transform="translate(-0.38 -0.42)"/><path id="Path_13" data-name="Path 13" d="M21.6,66.91l-6.86,6.86A1.32,1.32,0,0,0,15.66,76a1.33,1.33,0,0,0,.94-.39l6.85-6.86a1.3,1.3,0,0,0,0-1.84h0A1.31,1.31,0,0,0,21.6,66.91Z" transform="translate(-0.38 -0.42)"/><path id="Path_14" data-name="Path 14" d="M78.48,33a1.64,1.64,0,0,0,.49-.1l10.11-4.12a1.31,1.31,0,0,0-1-2.42L78,30.45a1.32,1.32,0,0,0-.72,1.71,1.3,1.3,0,0,0,1.22.82Z" transform="translate(-0.38 -0.42)"/><path id="Path_15" data-name="Path 15" d="M88.86,62.23,78.8,58a1.32,1.32,0,0,0-1,2.42l10.06,4.25a1.55,1.55,0,0,0,.52.1,1.31,1.31,0,0,0,1.31-1.31,1.34,1.34,0,0,0-.8-1.21Z" transform="translate(-0.38 -0.42)"/><path id="Path_16" data-name="Path 16" d="M58.63,13.28a1.45,1.45,0,0,0,.51.1,1.28,1.28,0,0,0,1.2-.8L64.6,2.51A1.32,1.32,0,0,0,63.89.8h0a1.3,1.3,0,0,0-1.7.67v0L57.93,11.56A1.31,1.31,0,0,0,58.63,13.28Z" transform="translate(-0.38 -0.42)"/><path id="Path_17" data-name="Path 17" d="M11.34,57.55,1.22,61.67a1.3,1.3,0,0,0,.48,2.52,1.44,1.44,0,0,0,.5-.1L12.31,60A1.31,1.31,0,0,0,13,58.26a1.3,1.3,0,0,0-1.69-.71Z" transform="translate(-0.38 -0.42)"/></g></g></svg>