<svg id="Laag_1" data-name="Laag 1" xmlns="http://www.w3.org/2000/svg" viewBox="0 0 68 68"><path id="Path_147" data-name="Path 147" d="M34.82,1a34,34,0,1,0,34,34h0A34,34,0,0,0,34.82,1ZM57.31,57.49A31.8,31.8,0,1,1,66.63,35,31.81,31.81,0,0,1,57.31,57.49Z" transform="translate(-0.82 -1)"/><g id="noun_Puzzle_2325633" data-name="noun Puzzle 2325633"><path id="Path_138" data-name="Path 138" d="M16,36.74a1.07,1.07,0,0,1-1.06-.87L14,31.31a1.55,1.55,0,0,1,.58-1.52,1.5,1.5,0,0,1,1.59-.17,1.29,1.29,0,0,0,.8.08,1.24,1.24,0,0,0,.9-1.34,1.2,1.2,0,0,0-1.36-1,1.25,1.25,0,0,0-.72.37,1.51,1.51,0,0,1-1.54.44,1.57,1.57,0,0,1-1.1-1.2l-.54-2.79a2.89,2.89,0,0,1,2.28-3.38l14-2.72a1.08,1.08,0,0,1,1.27.86h0l2.62,13.47A1.09,1.09,0,0,1,32,33.66h0L16.19,36.72A.65.65,0,0,1,16,36.74Zm.37-4.86.49,2.51,13.66-2.65L28.3,20.39,15.35,22.91a.72.72,0,0,0-.57.84l.35,1.81a3.37,3.37,0,1,1,1.23,6.32Z" transform="translate(-0.82 -1)"/><path id="Path_139" data-name="Path 139" d="M41.31,51.6a1.07,1.07,0,0,1-1.06-.87L37.63,37.26A1.08,1.08,0,0,1,38.49,36h0l14-2.73a2.89,2.89,0,0,1,3.38,2.28l.54,2.79A1.53,1.53,0,0,1,54.27,40a1.29,1.29,0,0,0-.8-.08,1.24,1.24,0,0,0-.91,1.34,1.19,1.19,0,0,0,2.07.65,1.55,1.55,0,0,1,2.65.76l.54,2.79a2.89,2.89,0,0,1-2.28,3.38l-14,2.73-.21,0ZM40,37.91l2.2,11.34,13-2.52a.72.72,0,0,0,.57-.84h0l-.35-1.8a3.39,3.39,0,0,1-3.55-.23,3.35,3.35,0,0,1-1.38-2.27A3.39,3.39,0,0,1,53,37.84a3.44,3.44,0,0,1,1.15-.08L53.77,36a.72.72,0,0,0-.84-.57h0Z" transform="translate(-0.82 -1)"/><path id="Path_140" data-name="Path 140" d="M39,32.8a2.88,2.88,0,0,1-2.83-2.34l-1.93-9.93a2.89,2.89,0,0,1,2.28-3.38l1.77-.35a3.37,3.37,0,1,1,6.07-2.93,3.42,3.42,0,0,1,.22.61,3.29,3.29,0,0,1,.11,1.08l1.76-.34a2.89,2.89,0,0,1,3.38,2.28l.34,1.73a3.37,3.37,0,1,1,1.26,6.47l.33,1.73a2.87,2.87,0,0,1-2.28,3.38l-2.78.54a1.55,1.55,0,0,1-1.52-.57A1.53,1.53,0,0,1,45,29.19a1.23,1.23,0,0,0,.09-.8h0a1.24,1.24,0,0,0-1.34-.91,1.22,1.22,0,0,0-1,1.36,1.24,1.24,0,0,0,.38.72,1.56,1.56,0,0,1,.09,2.18,1.6,1.6,0,0,1-.85.47l-2.79.54A3.41,3.41,0,0,1,39,32.8ZM41.3,14.14a1.2,1.2,0,0,0-1.2,1.2,1.25,1.25,0,0,0,.33.84,1.53,1.53,0,0,1-.83,2.57l-2.69.53a.72.72,0,0,0-.57.84h0l1.93,9.93a.73.73,0,0,0,.85.57l1.8-.35a3.37,3.37,0,0,1,5.94-3.19,3.47,3.47,0,0,1,.31.81h0A3.43,3.43,0,0,1,47.24,29l1.8-.35a.72.72,0,0,0,.57-.84l-.5-2.61a1.55,1.55,0,0,1,.5-1.46,1.52,1.52,0,0,1,1.5-.31,1.14,1.14,0,0,0,.73,0,1.2,1.2,0,1,0-1.13-2.06,1.54,1.54,0,0,1-2.17-.18,1.62,1.62,0,0,1-.34-.71l-.5-2.61a.73.73,0,0,0-.85-.57l-2.7.52a1.55,1.55,0,0,1-1.81-1.23,1.68,1.68,0,0,1,.08-.86,1.2,1.2,0,0,0,0-.75,1.22,1.22,0,0,0-1.17-.89Z" transform="translate(-0.82 -1)"/><path id="Path_141" data-name="Path 141" d="M29,57.78a3.37,3.37,0,0,1-3.38-3.36,1.31,1.31,0,0,1,0-.28l-1.77.32a2.88,2.88,0,0,1-3.36-2.32h0l-.31-1.74a3.37,3.37,0,1,1-2.59-6.22A3.27,3.27,0,0,1,19,43.92l-.31-1.74A2.88,2.88,0,0,1,21,38.83l2.8-.51a1.55,1.55,0,0,1,1.51.6,1.5,1.5,0,0,1,.15,1.59,1.23,1.23,0,0,0-.09.8h0a1.24,1.24,0,0,0,1.33.93,1.22,1.22,0,0,0,1-1.35,1.25,1.25,0,0,0-.37-.72,1.54,1.54,0,0,1,.8-2.63L30.94,37a2.88,2.88,0,0,1,3.35,2.32l1.81,10a2.88,2.88,0,0,1-2.32,3.35L32,53a3.39,3.39,0,0,1-2.62,4.77,3.11,3.11,0,0,1-.43,0Zm-2.56-6A1.54,1.54,0,0,1,28,53.36a1.48,1.48,0,0,1-.12.59,1.2,1.2,0,1,0,2.3.25,1.17,1.17,0,0,0-.3-.61A1.54,1.54,0,0,1,30.69,51l2.7-.49A.71.71,0,0,0,34,49.7l-1.81-10a.71.71,0,0,0-.83-.58h0l-1.81.33a3.37,3.37,0,0,1-6,3.11,3.41,3.41,0,0,1-.29-.81h0a3.19,3.19,0,0,1-.06-1.15L21.37,41a.71.71,0,0,0-.58.83l.48,2.62a1.59,1.59,0,0,1-.52,1.45,1.52,1.52,0,0,1-1.5.28,1.21,1.21,0,1,0-.79,2.28,1.18,1.18,0,0,0,1.16-.21,1.51,1.51,0,0,1,1.5-.26,1.56,1.56,0,0,1,1,1.18l.47,2.62a.73.73,0,0,0,.84.57l2.7-.49.27,0Z" transform="translate(-0.82 -1)"/></g></svg>