{
	"asset":{
		"version":"2.0",
		"generator":"Created using the official Cinema 4D glTF Exporter 1.000x284978"
	},
	"scenes":[{
		"nodes":[0]
	}],
	"nodes":[{
		"mesh":0,
		"name":"cloth_parent"
	}],
	"meshes":[{
		"name":"cloth_parent",
		"primitives":[{
			"attributes":{
				"POSITION":1,
				"NORMAL":2,
				"TEXCOORD_0":3
			},
			"indices":0
		}]
	}],
	"accessors":[{
		"bufferView":0,
		"max":[59170],
		"type":"SCALAR",
		"componentType":5123,
		"count":120264,
		"byteOffset":0,
		"min":[0]
	},
	{
		"bufferView":1,
		"max":[-14.174839973449707,
		1.1217749118804932,
		5.939600944519043],
		"type":"VEC3",
		"componentType":5126,
		"count":59171,
		"byteOffset":0,
		"min":[-19.449758529663087,
		0.004424425307661295,
		0.7094592452049255]
	},
	{
		"bufferView":1,
		"max":[0.9999637603759766,
		1.0,
		0.9998925924301148],
		"type":"VEC3",
		"componentType":5126,
		"count":59171,
		"byteOffset":12,
		"min":[-0.9997987151145935,
		-1.0,
		-0.9999930262565613]
	},
	{
		"bufferView":1,
		"max":[1264.1788330078126,
		885.925048828125],
		"type":"VEC2",
		"componentType":5126,
		"count":59171,
		"byteOffset":24,
		"min":[-1264.1788330078126,
		-883.925048828125]
	}],
	"bufferViews":[{
		"buffer":0,
		"byteOffset":0,
		"byteLength":240528,
		"target":34963
	},
	{
		"buffer":0,
		"byteOffset":240528,
		"byteLength":1893472,
		"target":34962,
		"byteStride":32
	}],
	"buffers":[{
		"uri":"data:application/octet-stream;base64,",
		"byteLength":2134000
	}]
}