{
  "accessors": [
    {
      "bufferView": 1,
      "componentType": 5126,
      "count": 65532,
      "max": [
        1.4566777944564819,
        0.27755182981491089,
        2.7464816570281982
      ],
      "min": [
        -1.4566797018051147,
        -0.33249601721763611,
        0.11687756329774857
      ],
      "type": "VEC3"
    },
    {
      "bufferView": 1,
      "byteOffset": 786384,
      "componentType": 5126,
      "count": 65532,
      "max": [
        0.99976307153701782,
        0.99992489814758301,
        0.9999966025352478
      ],
      "min": [
        -0.99994295835494995,
        -0.99999541044235229,
        -0.99999833106994629
      ],
      "type": "VEC3"
    },
    {
      "bufferView": 2,
      "componentType": 5126,
      "count": 65532,
      "max": [
        1,
        1,
        1,
        1
      ],
      "min": [
        0.99607843160629272,
        0.99607843160629272,
        0.99607843160629272,
        1
      ],
      "type": "VEC4"
    },
    {
      "bufferView": 0,
      "componentType": 5125,
      "count": 331896,
      "max": [
        65531
      ],
      "min": [
        0
      ],
      "type": "SCALAR"
    },
    {
      "bufferView": 1,
      "byteOffset": 1572768,
      "componentType": 5126,
      "count": 65532,
      "max": [
        1.2704178094863892,
        0.29965722560882568,
        3.1093764305114746
      ],
      "min": [
        -1.4417315721511841,
        -0.33812633156776428,
        0.11682844907045364
      ],
      "type": "VEC3"
    },
    {
      "bufferView": 1,
      "byteOffset": 2359152,
      "componentType": 5126,
      "count": 65532,
      "max": [
        0.99999183416366577,
        0.9999997615814209,
        0.99999767541885376
      ],
      "min": [
        -0.99998635053634644,
        -0.99999958276748657,
        -0.99999678134918213
      ],
      "type": "VEC3"
    },
    {
      "bufferView": 2,
      "byteOffset": 1048512,
      "componentType": 5126,
      "count": 65532,
      "max": [
        1,
        1,
        1,
        1
      ],
      "min": [
        0.99607843160629272,
        0.99607843160629272,
        0.99607843160629272,
        1
      ],
      "type": "VEC4"
    },
    {
      "bufferView": 0,
      "byteOffset": 1327584,
      "componentType": 5125,
      "count": 294294,
      "max": [
        65531
      ],
      "min": [
        0
      ],
      "type": "SCALAR"
    },
    {
      "bufferView": 1,
      "byteOffset": 3145536,
      "componentType": 5126,
      "count": 65532,
      "max": [
        1.0000178813934326,
        0.29965722560882568,
        3.1061677932739258
      ],
      "min": [
        -1.3925378322601318,
        -0.33003526926040649,
        0.1168178990483284
      ],
      "type": "VEC3"
    },
    {
      "bufferView": 1,
      "byteOffset": 3931920,
      "componentType": 5126,
      "count": 65532,
      "max": [
        0.99998635053634644,
        0.9999997615814209,
        0.99997460842132568
      ],
      "min": [
        -0.99998772144317627,
        -0.99994593858718872,
        -0.99998617172241211
      ],
      "type": "VEC3"
    },
    {
      "bufferView": 2,
      "byteOffset": 2097024,
      "componentType": 5126,
      "count": 65532,
      "max": [
        1,
        1,
        1,
        1
      ],
      "min": [
        0.99607843160629272,
        0.99607843160629272,
        0.99607843160629272,
        1
      ],
      "type": "VEC4"
    },
    {
      "bufferView": 0,
      "byteOffset": 2504760,
      "componentType": 5125,
      "count": 312288,
      "max": [
        65531
      ],
      "min": [
        0
      ],
      "type": "SCALAR"
    },
    {
      "bufferView": 1,
      "byteOffset": 4718304,
      "componentType": 5126,
      "count": 52608,
      "max": [
        1.453559398651123,
        0.29958057403564453,
        3.1083893775939941
      ],
      "min": [
        -1.4557085037231445,
        -0.33248484134674072,
        0.1168178990483284
      ],
      "type": "VEC3"
    },
    {
      "bufferView": 1,
      "byteOffset": 5349600,
      "componentType": 5126,
      "count": 52608,
      "max": [
        0.99998778104782104,
        0.9999997615814209,
        0.99999767541885376
      ],
      "min": [
        -0.99999183416366577,
        -0.99999541044235229,
        -0.99999678134918213
      ],
      "type": "VEC3"
    },
    {
      "bufferView": 2,
      "byteOffset": 3145536,
      "componentType": 5126,
      "count": 52608,
      "max": [
        1,
        1,
        1,
        1
      ],
      "min": [
        0.99607843160629272,
        0.99607843160629272,
        0.99607843160629272,
        1
      ],
      "type": "VEC4"
    },
    {
      "bufferView": 0,
      "byteOffset": 3753912,
      "componentType": 5125,
      "count": 237384,
      "max": [
        52607
      ],
      "min": [
        0
      ],
      "type": "SCALAR"
    },
    {
      "bufferView": 1,
      "byteOffset": 5980896,
      "componentType": 5126,
      "count": 2184,
      "max": [
        0.2726711630821228,
        -0.19826725125312805,
        2.6130490303039551
      ],
      "min": [
        -0.2726711630821228,
        -0.37214568257331848,
        2.4209930896759033
      ],
      "type": "VEC3"
    },
    {
      "bufferView": 1,
      "byteOffset": 6007104,
      "componentType": 5126,
      "count": 2184,
      "max": [
        0.99965494871139526,
        0.95241397619247437,
        0.95222187042236328
      ],
      "min": [
        -0.99965494871139526,
        -0.95241391658782959,
        -0.95222592353820801
      ],
      "type": "VEC3"
    },
    {
      "bufferView": 2,
      "byteOffset": 3987264,
      "componentType": 5126,
      "count": 2184,
      "max": [
        1,
        1,
        1,
        1
      ],
      "min": [
        1,
        1,
        1,
        1
      ],
      "type": "VEC4"
    },
    {
      "bufferView": 0,
      "byteOffset": 4703448,
      "componentType": 5125,
      "count": 11520,
      "max": [
        2183
      ],
      "min": [
        0
      ],
      "type": "SCALAR"
    }
  ],
  "asset": {
    "extras": {
      "author": "Yokai-SaVVy (https://sketchfab.com/Yokai-SaVVy)",
      "license": "CC-BY-4.0 (http://creativecommons.org/licenses/by/4.0/)",
      "source": "https://sketchfab.com/3d-models/demon-humanoid-8763ec0547a9428a81b732b8e0198dd8",
      "title": "Demon Humanoid"
    },
    "generator": "Sketchfab-5.31.0",
    "version": "2.0"
  },
  "bufferViews": [
    {
      "buffer": 0,
      "byteLength": 4749528,
      "byteOffset": 0,
      "name": "floatBufferViews",
      "target": 34963
    },
    {
      "buffer": 0,
      "byteLength": 6033312,
      "byteOffset": 4749528,
      "byteStride": 12,
      "name": "floatBufferViews",
      "target": 34962
    },
    {
      "buffer": 0,
      "byteLength": 4022208,
      "byteOffset": 10782840,
      "byteStride": 16,
      "name": "floatBufferViews",
      "target": 34962
    }
  ],
  "buffers": [
    {
      "byteLength": 14805048,
      "uri": "scene.bin"
    }
  ],
  "materials": [
    {
      "doubleSided": true,
      "name": "material_0",
      "pbrMetallicRoughness": {
        "baseColorFactor": [
          1,
          1,
          1,
          1
        ],
        "metallicFactor": 0,
        "roughnessFactor": 0.59999999999999998
      }
    }
  ],
  "meshes": [
    {
      "primitives": [
        {
          "attributes": {
            "COLOR_0": 2,
            "NORMAL": 1,
            "POSITION": 0
          },
          "indices": 3,
          "material": 0,
          "mode": 4
        }
      ]
    },
    {
      "primitives": [
        {
          "attributes": {
            "COLOR_0": 6,
            "NORMAL": 5,
            "POSITION": 4
          },
          "indices": 7,
          "material": 0,
          "mode": 4
        }
      ]
    },
    {
      "primitives": [
        {
          "attributes": {
            "COLOR_0": 10,
            "NORMAL": 9,
            "POSITION": 8
          },
          "indices": 11,
          "material": 0,
          "mode": 4
        }
      ]
    },
    {
      "primitives": [
        {
          "attributes": {
            "COLOR_0": 14,
            "NORMAL": 13,
            "POSITION": 12
          },
          "indices": 15,
          "material": 0,
          "mode": 4
        }
      ]
    },
    {
      "primitives": [
        {
          "attributes": {
            "COLOR_0": 18,
            "NORMAL": 17,
            "POSITION": 16
          },
          "indices": 19,
          "material": 0,
          "mode": 4
        }
      ]
    }
  ],
  "nodes": [
    {
      "children": [
        1
      ],
      "name": "RootNode (gltf orientation matrix)",
      "rotation": [
        -0.70710678118654746,
        -0,
        -0,
        0.70710678118654757
      ]
    },
    {
      "children": [
        2
      ],
      "name": "RootNode (model correction matrix)"
    },
    {
      "children": [
        3,
        4,
        5,
        6,
        7
      ],
      "name": "Demon Humanoid.OBJ.cleaner.materialmerger.gles"
    },
    {
      "mesh": 0,
      "name": ""
    },
    {
      "mesh": 1,
      "name": ""
    },
    {
      "mesh": 2,
      "name": ""
    },
    {
      "mesh": 3,
      "name": ""
    },
    {
      "mesh": 4,
      "name": ""
    }
  ],
  "scene": 0,
  "scenes": [
    {
      "name": "OSG_Scene",
      "nodes": [
        0
      ]
    }
  ]
}

