<svg id="Laag_1" data-name="Laag 1" xmlns="http://www.w3.org/2000/svg" viewBox="0 0 75.95 75.95"><g id="noun_Laptop_4390329" data-name="noun Laptop 4390329"><g id="Layer_37" data-name="Layer 37"><path id="Path_224" data-name="Path 224" d="M72.94,57.2l-4.52-6.79V29.65a7,7,0,0,0-7-7H29.79a7,7,0,0,0-7,7h0V50.41L18.3,57.2a3.14,3.14,0,0,0,.87,4.33,3.17,3.17,0,0,0,1.74.52H70.33a3.13,3.13,0,0,0,3.14-3.11A3.07,3.07,0,0,0,72.94,57.2Zm-8-8H26.31V29.65a3.49,3.49,0,0,1,3.47-3.49H61.46a3.48,3.48,0,0,1,3.48,3.48h0Z" transform="translate(-7.65 -7.13)"/></g></g><g id="noun_Star_865662" data-name="noun Star 865662"><g id="Group_47" data-name="Group 47"><path id="Path_35" data-name="Path 35" d="M45.62,7.13a38,38,0,1,0,38,38,38,38,0,0,0-38-38Zm25.12,63.1A35.51,35.51,0,1,1,81.15,45.11,35.53,35.53,0,0,1,70.74,70.23Z" transform="translate(-7.65 -7.13)"/></g></g></svg>