<svg id="Laag_1" data-name="Laag 1" xmlns="http://www.w3.org/2000/svg" viewBox="0 0 75.95 75.95"><g id="noun_Smartphone_4384242" data-name="noun Smartphone 4384242"><g id="Group_129" data-name="Group 129"><path id="Path_164" data-name="Path 164" d="M56.89,70.23H34.36A4.33,4.33,0,0,1,30,65.9h0V24.31A4.33,4.33,0,0,1,34.36,20H56.89a4.33,4.33,0,0,1,4.33,4.33V65.9A4.33,4.33,0,0,1,56.89,70.23ZM34.36,21.71a2.6,2.6,0,0,0-2.6,2.6h0V65.9a2.59,2.59,0,0,0,2.6,2.6H56.89a2.6,2.6,0,0,0,2.6-2.6V24.31a2.61,2.61,0,0,0-2.6-2.6Z" transform="translate(-7.65 -7.13)"/><path id="Path_165" data-name="Path 165" d="M52.12,66.77h-13a2.17,2.17,0,0,1,0-4.34h13a2.17,2.17,0,1,1,0,4.34Zm-13-2.6a.43.43,0,1,0,0,.86h13a.43.43,0,1,0,0-.86Z" transform="translate(-7.65 -7.13)"/><path id="Path_166" data-name="Path 166" d="M50.09,25.18H41.16a3.45,3.45,0,0,1-3.09-1.91l-1-2a.88.88,0,0,1,.38-1.17.86.86,0,0,1,.39-.09H53.42a.87.87,0,0,1,.87.87.9.9,0,0,1-.1.39l-1,2A3.46,3.46,0,0,1,50.09,25.18ZM39.23,21.71l.39.78a1.75,1.75,0,0,0,1.54,1h8.93a1.75,1.75,0,0,0,1.54-1l.39-.77Z" transform="translate(-7.65 -7.13)"/></g></g><g id="noun_Star_865662" data-name="noun Star 865662"><g id="Group_47" data-name="Group 47"><path id="Path_35" data-name="Path 35" d="M45.62,7.13a38,38,0,1,0,38,38,38,38,0,0,0-38-38Zm25.12,63.1A35.51,35.51,0,1,1,81.15,45.11,35.53,35.53,0,0,1,70.74,70.23Z" transform="translate(-7.65 -7.13)"/></g></g></svg>