<?xml version="1.0" encoding="utf-8"?>
<!-- Generator: Adobe Illustrator 26.0.1, SVG Export Plug-In . SVG Version: 6.00 Build 0)  -->
<svg version="1.1" id="Laag_1" xmlns="http://www.w3.org/2000/svg" xmlns:xlink="http://www.w3.org/1999/xlink" x="0px" y="0px"
	 viewBox="0 0 75.9 75.9" style="enable-background:new 0 0 75.9 75.9;" xml:space="preserve">
<g id="noun_Star_865662">
	<g id="Group_47">
		<path id="Path_35" d="M38,0C17,0,0,17,0,38s17,38,38,38s38-17,38-38l0,0C76,17,59,0,38,0z M63.1,63.1C49.2,77,26.7,77,12.9,63.1
			s-13.9-36.4,0-50.2s36.4-13.9,50.2,0c6.7,6.7,10.4,15.7,10.4,25.1C73.5,47.4,69.8,56.4,63.1,63.1z"/>
	</g>
</g>
<g>
	<path d="M34.2,48.6c-1.3,1.4-2,3.1-2,4.9c0,1.8,0.7,3.5,2,4.9c1.3,1.3,3,2,4.9,2s3.5-0.7,4.9-2c1.3-1.3,2-3,2-4.9
		c0-1.9-0.7-3.5-2-4.9C41.3,46,36.9,46,34.2,48.6z M41.5,55.9c-1.3,1.3-3.5,1.3-4.9,0c-0.6-0.6-0.9-1.5-0.9-2.4c0-1,0.3-1.8,1-2.4
		c0.7-0.6,1.5-1,2.4-1c1,0,1.8,0.3,2.4,1c0.6,0.7,1,1.5,1,2.4C42.6,54.5,42.2,55.3,41.5,55.9L41.5,55.9z M51.3,41.3
		c0.7,0.7,0.7,1.7,0,2.4c-0.3,0.3-0.8,0.5-1.2,0.5c-0.4,0-0.9-0.2-1.2-0.5c-5.4-5.4-14.2-5.4-19.5,0c-0.7,0.7-1.7,0.7-2.4,0
		s-0.7-1.7,0-2.4C33.7,34.6,44.5,34.6,51.3,41.3L51.3,41.3z M58.6,34c0.7,0.7,0.7,1.7,0,2.4c-0.3,0.3-0.8,0.5-1.2,0.5
		s-0.9-0.2-1.2-0.5C46.8,27,31.4,27,22,36.4c-0.7,0.7-1.7,0.7-2.4,0s-0.7-1.7,0-2.4C30.3,23.2,47.9,23.2,58.6,34L58.6,34z M66,29.1
		c-0.3,0.3-0.8,0.5-1.2,0.5c-0.4,0-0.9-0.2-1.2-0.5C57,22.6,48.3,19,39.1,19s-17.9,3.6-24.4,10.1c-0.7,0.7-1.7,0.7-2.4,0
		c-0.7-0.7-0.7-1.7,0-2.4c7.2-7.2,16.7-11.1,26.9-11.1s19.7,4,26.9,11.1C66.7,27.4,66.7,28.4,66,29.1L66,29.1z"/>
</g>
</svg>
