<?xml version="1.0" encoding="utf-8"?>
<!-- Generator: Adobe Illustrator 26.0.1, SVG Export Plug-In . SVG Version: 6.00 Build 0)  -->
<svg version="1.1" id="Laag_1" xmlns="http://www.w3.org/2000/svg" xmlns:xlink="http://www.w3.org/1999/xlink" x="0px" y="0px"
	 viewBox="0 0 75.9 75.9" style="enable-background:new 0 0 75.9 75.9;" xml:space="preserve">
<g id="noun_Star_865662">
	<g id="Group_47">
		<path id="Path_35" d="M38,0C17,0,0,17,0,38s17,38,38,38s38-17,38-38l0,0C76,17,59,0,38,0z M63.1,63.1C49.2,77,26.7,77,12.9,63.1
			s-13.9-36.4,0-50.2s36.4-13.9,50.2,0c6.7,6.7,10.4,15.7,10.4,25.1C73.5,47.4,69.8,56.4,63.1,63.1z"/>
	</g>
</g>
<g>
	<path d="M41.8,37.8c1.5-1.1,2.4-2.8,2.4-4.8c0-3.3-2.7-6-6-6c-3.3,0-6,2.7-6,6c0,1.9,0.9,3.7,2.4,4.8L28.4,59
		c-0.2,0.8,0.2,1.6,1.1,1.9c0.2,0.1,0.3,0.1,0.4,0.1c0.6,0,1.3-0.4,1.5-1.1l2.1-6.9h9.7l1.9,6.9c0.2,0.7,0.8,1.1,1.5,1.1
		c0.2,0,0.3,0,0.4-0.1c0.8-0.2,1.3-1.1,1.1-1.9L41.8,37.8z M34.3,49.9L37.4,39c0.3,0.1,0.5,0.1,0.8,0.1c0.3,0,0.5-0.1,0.8-0.1
		l3.2,10.9H34.3z"/>
	<path d="M16.2,33.1c0-4.7,1.5-9.1,4.2-12.9c0.5-0.7,0.4-1.6-0.3-2.1c-0.7-0.5-1.6-0.4-2.1,0.3c-3.2,4.3-4.8,9.3-4.8,14.7
		c0,5.4,1.7,10.4,4.8,14.7c0.3,0.4,0.7,0.6,1.2,0.6c0.3,0,0.6-0.1,0.9-0.3c0.7-0.5,0.8-1.4,0.3-2.1C17.7,42.2,16.2,37.8,16.2,33.1
		L16.2,33.1z"/>
	<path d="M58.4,18.4c-0.5-0.7-1.4-0.8-2.1-0.3c-0.7,0.5-0.8,1.4-0.3,2.1c2.7,3.7,4.2,8.2,4.2,12.9s-1.5,9.1-4.2,12.9
		c-0.5,0.7-0.4,1.6,0.3,2.1c0.3,0.2,0.6,0.3,0.9,0.3c0.5,0,0.9-0.2,1.2-0.6c3.2-4.3,4.8-9.4,4.8-14.7S61.5,22.7,58.4,18.4L58.4,18.4
		z"/>
	<path d="M53.9,23c-0.5-0.7-1.4-0.9-2.1-0.5c-0.7,0.5-0.9,1.4-0.5,2.1c1.6,2.5,2.5,5.4,2.5,8.4c0,3-0.8,5.9-2.5,8.4
		c-0.5,0.7-0.3,1.6,0.5,2.1c0.3,0.2,0.5,0.3,0.8,0.3c0.5,0,1-0.3,1.3-0.7c1.9-3,2.9-6.5,2.9-10.1C56.9,29.5,55.8,26,53.9,23L53.9,23
		z"/>
	<path d="M24.6,22.6c-0.7-0.5-1.6-0.3-2.1,0.4c-1.9,3-2.9,6.5-2.9,10c0,3.6,1.1,7.1,2.9,10c0.3,0.4,0.8,0.7,1.3,0.7
		c0.3,0,0.6-0.1,0.8-0.3c0.7-0.5,0.9-1.4,0.4-2.1c-1.6-2.5-2.5-5.4-2.5-8.4s0.8-5.9,2.5-8.4C25.5,24,25.3,23.1,24.6,22.6L24.6,22.6z
		"/>
	<path d="M47.3,27.1c-0.7,0.4-1.1,1.3-0.7,2c0.6,1.2,0.9,2.6,0.9,3.9c0,1.4-0.3,2.7-0.9,3.9c-0.4,0.7-0.1,1.6,0.7,2
		c0.2,0.1,0.4,0.2,0.7,0.2c0.6,0,1.1-0.3,1.4-0.8c0.8-1.6,1.2-3.4,1.2-5.3c0-1.8-0.4-3.6-1.2-5.3C49,27.1,48.1,26.7,47.3,27.1
		L47.3,27.1z"/>
	<path d="M29.1,39c0.7-0.4,1.1-1.3,0.7-2c-0.6-1.3-0.9-2.6-0.9-3.9c0-1.4,0.3-2.7,0.9-3.9c0.4-0.7,0-1.6-0.7-2s-1.7-0.1-2,0.7
		c-0.8,1.6-1.2,3.4-1.2,5.3c0,1.8,0.4,3.6,1.2,5.3c0.3,0.5,0.8,0.9,1.4,0.9C28.6,39.2,28.8,39.1,29.1,39L29.1,39z"/>
</g>
</svg>
