<?xml version="1.0" encoding="utf-8"?>
<!-- Generator: Adobe Illustrator 26.0.1, SVG Export Plug-In . SVG Version: 6.00 Build 0)  -->
<svg version="1.1" id="Laag_1" xmlns="http://www.w3.org/2000/svg" xmlns:xlink="http://www.w3.org/1999/xlink" x="0px" y="0px"
	 viewBox="0 0 75.9 75.9" style="enable-background:new 0 0 75.9 75.9;" xml:space="preserve">
<g id="noun_Star_865662">
	<g id="Group_47">
		<path id="Path_35" d="M38,0C17,0,0,17,0,38s17,38,38,38s38-17,38-38l0,0C76,17,59,0,38,0z M63.1,63.1C49.2,77,26.7,77,12.9,63.1
			s-13.9-36.4,0-50.2s36.4-13.9,50.2,0c6.7,6.7,10.4,15.7,10.4,25.1C73.5,47.4,69.8,56.4,63.1,63.1z"/>
	</g>
</g>
<g>
	<path d="M50,25.8H28.8c-6.7,0-12.2,5.5-12.2,12.2s5.5,12.2,12.2,12.2H50c6.7,0,12.2-5.5,12.2-12.2C62.2,31.3,56.7,25.8,50,25.8
		L50,25.8z M28.1,42c-2.2,0-4-1.8-4-4c0-2.2,1.8-4,4-4c2.2,0,4,1.8,4,4C32.1,40.2,30.3,42,28.1,42z M39.4,42c-2.2,0-4-1.8-4-4
		c0-2.2,1.8-4,4-4c2.2,0,4,1.8,4,4C43.4,40.2,41.6,42,39.4,42z M50.7,42c-2.2,0-4-1.8-4-4c0-2.2,1.8-4,4-4c2.2,0,4,1.8,4,4
		C54.6,40.2,52.9,42,50.7,42z"/>
</g>
</svg>
