<?xml version="1.0" encoding="utf-8"?>
<!-- Generator: Adobe Illustrator 26.0.1, SVG Export Plug-In . SVG Version: 6.00 Build 0)  -->
<svg version="1.1" id="Laag_1" xmlns="http://www.w3.org/2000/svg" xmlns:xlink="http://www.w3.org/1999/xlink" x="0px" y="0px"
	 viewBox="0 0 75.9 75.9" style="enable-background:new 0 0 75.9 75.9;" xml:space="preserve">
<g id="noun_Star_865662">
	<g id="Group_47">
		<path id="Path_35" d="M38,0C17,0,0,17,0,38s17,38,38,38s38-17,38-38l0,0C76,17,59,0,38,0z M63.1,63.1C49.2,77,26.7,77,12.9,63.1
			s-13.9-36.4,0-50.2s36.4-13.9,50.2,0c6.7,6.7,10.4,15.7,10.4,25.1C73.5,47.4,69.8,56.4,63.1,63.1z"/>
	</g>
</g>
<g>
	<path d="M45,48.5h4c0.5,0,0.9-0.4,0.9-0.9v-4c0-0.5-0.4-0.9-0.9-0.9h-4c-0.5,0-0.9,0.4-0.9,0.9v4C44.1,48.1,44.5,48.5,45,48.5z
		 M45.8,44.5h2.3v2.3h-2.3V44.5z"/>
	<path d="M41.9,42.8H23.7c-0.5,0-0.9,0.4-0.9,0.9v4c0,0.5,0.4,0.9,0.9,0.9h18.2c0.5,0,0.9-0.4,0.9-0.9v-4
		C42.8,43.1,42.4,42.8,41.9,42.8z M41,46.8H24.5v-2.3H41V46.8z"/>
	<path d="M20.6,42.8h-4c-0.5,0-0.9,0.4-0.9,0.9v4c0,0.5,0.4,0.9,0.9,0.9h4c0.5,0,0.9-0.4,0.9-0.9v-4C21.5,43.1,21.1,42.8,20.6,42.8
		L20.6,42.8z M19.8,46.8h-2.3v-2.3h2.3V46.8z"/>
	<path d="M45,41.4h4c0.5,0,0.9-0.4,0.9-0.9v-4c0-0.5-0.4-0.9-0.9-0.9h-4c-0.5,0-0.9,0.4-0.9,0.9v4C44.1,41.1,44.5,41.4,45,41.4z
		 M45.8,37.4h2.3v2.3h-2.3V37.4z"/>
	<path d="M37.9,41.4h4c0.5,0,0.9-0.4,0.9-0.9v-4c0-0.5-0.4-0.9-0.9-0.9h-4c-0.5,0-0.9,0.4-0.9,0.9v4C37,41.1,37.4,41.4,37.9,41.4z
		 M38.7,37.4H41v2.3h-2.3L38.7,37.4z"/>
	<path d="M29.9,36.5v4c0,0.5,0.4,0.9,0.9,0.9h4c0.5,0,0.9-0.4,0.9-0.9v-4c0-0.5-0.4-0.9-0.9-0.9h-4C30.3,35.7,29.9,36.1,29.9,36.5z
		 M31.6,37.4h2.3v2.3h-2.3V37.4z"/>
	<path d="M23.7,41.4h4c0.5,0,0.9-0.4,0.9-0.9v-4c0-0.5-0.4-0.9-0.9-0.9h-4c-0.5,0-0.9,0.4-0.9,0.9v4C22.8,41.1,23.2,41.4,23.7,41.4z
		 M24.6,37.4h2.3v2.3h-2.3V37.4z"/>
	<path d="M20.6,35.7h-4c-0.5,0-0.9,0.4-0.9,0.9v4c0,0.5,0.4,0.9,0.9,0.9h4c0.5,0,0.9-0.4,0.9-0.9v-4C21.5,36.1,21.1,35.7,20.6,35.7
		L20.6,35.7z M19.8,39.7h-2.3v-2.3h2.3V39.7z"/>
	<path d="M65.2,40.6v-0.1v-0.6c0-2.5-1.8-4.6-4.2-4.9l0-11.6v-0.1c0-0.5-0.4-0.9-0.9-0.9l-27.4,0c-0.5,0-0.9,0.4-0.9,0.9v9.7H13.2
		c-0.5,0-0.9,0.4-0.9,0.9v17.6c0,0.5,0.4,0.9,0.9,0.9h39.3c0.5,0,0.9-0.4,0.9-0.9l0-17.5c0-0.5-0.4-0.9-0.9-0.9H33.7v-8.9h25.7v10.8
		c-2.4,0.4-4.2,2.4-4.2,4.9v5.5c0,2.8,2.3,5.1,5.1,5.1c2.8,0,5.1-2.3,5.1-5.1L65.2,40.6L65.2,40.6L65.2,40.6z M51.6,50.6H14V34.7
		h37.5V50.6z M63.5,39.7h-2.4v-3.1C62.4,37,63.4,38.2,63.5,39.7z M59.3,36.7v3.1h-2.4C56.9,38.2,57.9,37,59.3,36.7z M60.2,48.7
		c-1.8,0-3.4-1.5-3.4-3.4v-3.9h6.7v3.9C63.5,47.2,62,48.7,60.2,48.7L60.2,48.7z"/>
</g>
</svg>
