<svg id="Laag_1" data-name="Laag 1" xmlns="http://www.w3.org/2000/svg" viewBox="0 0 66.18 66.18"><defs><style>.cls-1{fill:#fff;}.cls-2{fill:#b15cab;}</style></defs><g id="Group_53" data-name="Group 53"><g id="Group_52" data-name="Group 52"><rect id="Rectangle_140" data-name="Rectangle 140" class="cls-1" x="19.2" y="15.51" width="27.78" height="19.1" rx="5"/><g id="noun_Video_3636444" data-name="noun Video 3636444"><path id="Path_55" data-name="Path 55" class="cls-2" d="M54.53,46.45H36.59a4.93,4.93,0,0,1-4.93-4.93h0v-9a4.93,4.93,0,0,1,4.93-4.93H54.53a4.93,4.93,0,0,1,4.93,4.93v9A4.93,4.93,0,0,1,54.53,46.45ZM36.59,28.52a4,4,0,0,0-4,4v9a4,4,0,0,0,4,4H54.53a4,4,0,0,0,4-4v-9a4,4,0,0,0-4-4Z" transform="translate(-12.47 -12.02)"/><path id="Path_56" data-name="Path 56" class="cls-2" d="M44.21,41.18a1.34,1.34,0,0,1-1.34-1.34V34.23a1.34,1.34,0,0,1,1.34-1.35,1.4,1.4,0,0,1,.75.22l4.21,2.81a1.33,1.33,0,0,1,0,2.24L45,41A1.32,1.32,0,0,1,44.21,41.18Zm0-7.41a.39.39,0,0,0-.21.06.44.44,0,0,0-.24.4v5.61a.44.44,0,0,0,.44.45.41.41,0,0,0,.26-.07l4.24-2.81a.45.45,0,0,0,.12-.63.46.46,0,0,0-.12-.12l-4.21-2.81a.45.45,0,0,0-.27-.08Z" transform="translate(-12.47 -12.02)"/></g></g><g id="Group_51" data-name="Group 51"><rect id="Rectangle_139" data-name="Rectangle 139" class="cls-1" x="15.42" y="18.28" width="35.35" height="24.3" rx="4"/><g id="noun_Video_3636444-2" data-name="noun Video 3636444-2"><path id="Path_55-2" data-name="Path 55-2" class="cls-2" d="M57,54.36H34.15a6.27,6.27,0,0,1-6.28-6.27V36.68a6.28,6.28,0,0,1,6.28-6.28H57a6.28,6.28,0,0,1,6.28,6.28h0V48.09A6.27,6.27,0,0,1,57,54.36ZM34.15,31.54A5.14,5.14,0,0,0,29,36.68h0V48.09a5.13,5.13,0,0,0,5.13,5.13H57a5.13,5.13,0,0,0,5.14-5.13h0V36.68A5.14,5.14,0,0,0,57,31.54H34.15Z" transform="translate(-12.47 -12.02)"/><path id="Path_56-2" data-name="Path 56-2" class="cls-2" d="M43.85,47.67A1.71,1.71,0,0,1,42.14,46V38.81a1.71,1.71,0,0,1,1.71-1.71,1.68,1.68,0,0,1,.94.29L50.16,41a1.72,1.72,0,0,1,.48,2.37,1.69,1.69,0,0,1-.48.48l-5.37,3.57A1.68,1.68,0,0,1,43.85,47.67Zm0-9.43a.67.67,0,0,0-.28.06.59.59,0,0,0-.3.51V46a.58.58,0,0,0,.57.57.53.53,0,0,0,.32-.1l5.4-3.57a.57.57,0,0,0,.15-.79.46.46,0,0,0-.15-.16l-5.37-3.58A.52.52,0,0,0,43.85,38.24Z" transform="translate(-12.47 -12.02)"/></g></g><g id="Group_50" data-name="Group 50"><rect id="Rectangle_138" data-name="Rectangle 138" class="cls-1" x="11.55" y="21.91" width="43.08" height="28.72" rx="6"/><g id="noun_Video_3636444-3" data-name="noun Video 3636444-3"><path id="Path_55-3" data-name="Path 55-3" d="M59.33,62.69H31.79a7.58,7.58,0,0,1-7.58-7.58V41.34a7.57,7.57,0,0,1,7.58-7.57H59.33a7.57,7.57,0,0,1,7.57,7.57h0V55.11A7.58,7.58,0,0,1,59.33,62.69ZM31.79,35.14a6.2,6.2,0,0,0-6.2,6.2V55.11a6.19,6.19,0,0,0,6.2,6.2H59.33a6.2,6.2,0,0,0,6.2-6.2h0V41.34a6.21,6.21,0,0,0-6.2-6.2H31.79Z" transform="translate(-12.47 -12.02)"/><path id="Path_56-3" data-name="Path 56-3" d="M43.49,54.6a2.06,2.06,0,0,1-2.06-2.06h0V43.91a2.06,2.06,0,0,1,2.06-2.06,2.12,2.12,0,0,1,1.15.34l6.47,4.31a2.07,2.07,0,0,1,.58,2.87,2.13,2.13,0,0,1-.58.58l-6.47,4.31a2.12,2.12,0,0,1-1.15.34Zm0-11.38a.76.76,0,0,0-.33.08.71.71,0,0,0-.36.62v8.62a.68.68,0,0,0,.69.68.7.7,0,0,0,.37-.11l6.52-4.32a.69.69,0,0,0,0-1.14l-6.47-4.32A.68.68,0,0,0,43.49,43.22Z" transform="translate(-12.47 -12.02)"/></g><g id="noun_Video_3636444-4" data-name="noun Video 3636444-4"><path id="Path_55-4" data-name="Path 55-4" class="cls-2" d="M59.33,62.69H31.79a7.58,7.58,0,0,1-7.58-7.58V41.34a7.57,7.57,0,0,1,7.58-7.57H59.33a7.57,7.57,0,0,1,7.57,7.57h0V55.11A7.58,7.58,0,0,1,59.33,62.69ZM31.79,35.14a6.2,6.2,0,0,0-6.2,6.2V55.11a6.19,6.19,0,0,0,6.2,6.2H59.33a6.2,6.2,0,0,0,6.2-6.2h0V41.34a6.21,6.21,0,0,0-6.2-6.2H31.79Z" transform="translate(-12.47 -12.02)"/><path id="Path_56-4" data-name="Path 56-4" class="cls-2" d="M43.49,54.6a2.06,2.06,0,0,1-2.06-2.06h0V43.91a2.06,2.06,0,0,1,2.06-2.06,2.12,2.12,0,0,1,1.15.34l6.47,4.31a2.07,2.07,0,0,1,.58,2.87,2.13,2.13,0,0,1-.58.58l-6.47,4.31a2.12,2.12,0,0,1-1.15.34Zm0-11.38a.76.76,0,0,0-.33.08.71.71,0,0,0-.36.62v8.62a.68.68,0,0,0,.69.68.7.7,0,0,0,.37-.11l6.52-4.32a.69.69,0,0,0,0-1.14l-6.47-4.32A.68.68,0,0,0,43.49,43.22Z" transform="translate(-12.47 -12.02)"/></g></g></g><path id="Path_58" data-name="Path 58" class="cls-2" d="M45.56,12A33.09,33.09,0,1,0,78.65,45.11h0A33.09,33.09,0,0,0,45.56,12ZM67.45,67a31,31,0,1,1,9.06-21.89A31,31,0,0,1,67.45,67Z" transform="translate(-12.47 -12.02)"/></svg>