<svg id="Laag_1" data-name="Laag 1" xmlns="http://www.w3.org/2000/svg" viewBox="0 0 75.95 75.95"><g id="Group_144" data-name="Group 144"><path id="Path_223" data-name="Path 223" d="M69.08,31.1h-.76V25.83a2.25,2.25,0,0,0-2.23-2.23H61.23A2.25,2.25,0,0,0,59,25.83V31.1h-.76a.59.59,0,0,0-.61.56V44.37a.58.58,0,0,0,.56.61h3.34V55.47a7.81,7.81,0,0,1-7.8,7.8H40.91a7.82,7.82,0,0,1-7.8-7.8V50.15h3.24a4.08,4.08,0,0,0,4.06-4.06v-12a.59.59,0,0,0-.56-.61H38.18V22.69H23.74V33.53H22.17a.59.59,0,0,0-.61.56v12a4.07,4.07,0,0,0,4.05,4.06h3.3v5.32A12.07,12.07,0,0,0,41,67.52H53.73a12.08,12.08,0,0,0,12.06-12V44.93h3.29a.59.59,0,0,0,.61-.56V31.66a.58.58,0,0,0-.59-.56ZM25.87,24.77H36.1v8.71H25.87Zm34.4,1.06a1,1,0,0,1,1-1h4.86a1,1,0,0,1,1,1h0V31.1H60.27Z" transform="translate(-7.65 -7.13)"/><rect id="Rectangle_206" data-name="Rectangle 206" x="53.83" y="19.36" width="0.66" height="3.19"/><rect id="Rectangle_207" data-name="Rectangle 207" x="55.1" y="19.36" width="0.66" height="3.19"/><rect id="Rectangle_208" data-name="Rectangle 208" x="56.31" y="19.36" width="0.66" height="3.19"/><rect id="Rectangle_209" data-name="Rectangle 209" x="57.53" y="19.36" width="0.66" height="3.19"/><rect id="Rectangle_210" data-name="Rectangle 210" x="20.7" y="20.52" width="1.77" height="3.6"/><rect id="Rectangle_211" data-name="Rectangle 211" x="24.24" y="20.52" width="1.77" height="3.6"/></g><g id="noun_Star_865662" data-name="noun Star 865662"><g id="Group_47" data-name="Group 47"><path id="Path_35" data-name="Path 35" d="M45.62,7.13a38,38,0,1,0,38,38,38,38,0,0,0-38-38Zm25.12,63.1A35.51,35.51,0,1,1,81.15,45.11,35.53,35.53,0,0,1,70.74,70.23Z" transform="translate(-7.65 -7.13)"/></g></g></svg>