
<svg id="visual" viewBox="0 0 900 600" width="900" height="600" xmlns="http://www.w3.org/2000/svg" xlink="http://www.w3.org/1999/xlink" version="1.1">
    <rect x="0" y="0" width="900" height="600" fill="white"></rect>
    <defs>
        <linearGradient id="grad1_0" x1="33.3%" y1="0%" x2="100%" y2="100%">
            <stop offset="20%" stop-color="#001220" stop-opacity="1"></stop>
            <stop offset="80%" stop-color="#001220" stop-opacity="1"></stop>
        </linearGradient>
    </defs>
    <defs>
        <linearGradient id="grad2_0" x1="0%" y1="0%" x2="66.7%" y2="100%">
            <stop offset="20%" stop-color="#fff" stop-opacity="1"></stop>
            <stop offset="80%" stop-color="#001220" stop-opacity="1"></stop>
        </linearGradient>
    </defs>
    <g transform="translate(900, 0)">
        <path d="M0 486.7C-46.5 440.8 -92.9 394.8 -156.9 378.8C-220.9 362.7 -302.3 376.6 -344.2 344.2C-386.1 311.8 -388.4 233.1 -405.6 168C-422.8 102.9 -454.8 51.5 -486.7 0L0 0Z" fill="#1fb0ef"></path>
    </g>
    <g transform="translate(0, 600)">
        <path d="M0 -486.7C46.1 -439 92.2 -391.3 155.4 -375.1C218.5 -358.9 298.7 -374.3 344.2 -344.2C389.7 -314 400.5 -238.3 418.5 -173.4C436.5 -108.4 461.6 -54.2 486.7 0L0 0Z" fill="#1fb0ef"></path>
    </g>
</svg>